<svg xmlns="http://www.w3.org/2000/svg" viewBox="0 0 64 64" fill="none" stroke="currentColor" stroke-width="2.5" stroke-linecap="round" stroke-linejoin="round">
  <!-- Coastline shape -->
  <path d="M8 14c6 2 10 8 14 10s8 0 12 4 6 10 10 14 8 4 12 8"/>
  <!-- Route dashes along coast -->
  <path d="M14 22c4 2 8 6 12 8s6 2 10 6 4 8 8 12 6 4 10 6" stroke-dasharray="6 4" stroke-width="2"/>
  <!-- Small ship on route -->
  <path d="M32 34l-4 6h10l2-6z" stroke-width="2"/>
  <line x1="34" y1="30" x2="34" y2="34" stroke-width="2"/>
  <!-- Waves -->
  <path d="M8 52c4-2 8 0 12-2s8 0 12-2 8 0 12-2 8 0 12-2" stroke-width="1.5"/>
  <path d="M8 56c4-2 8 0 12-2s8 0 12-2 8 0 12-2 8 0 12-2" stroke-width="1.5"/>
</svg>
