<svg xmlns="http://www.w3.org/2000/svg" viewBox="0 0 64 64" fill="none" stroke="currentColor" stroke-width="2.5" stroke-linecap="round" stroke-linejoin="round">
  <!-- Mountains in background -->
  <polyline points="2 42 14 20 26 42"/>
  <polyline points="20 42 34 14 48 42"/>
  <polyline points="40 42 50 26 60 42"/>
  <!-- Rough mountain road -->
  <path d="M4 52c6-2 10-4 16-2s10 4 16 2 10-4 16-2 6 2 8 2" stroke-width="2"/>
  <!-- Truck on road -->
  <rect x="22" y="42" width="14" height="8" rx="1.5"/>
  <path d="M36 44h6c1.5 0 2.5 1 2.5 2.5V50H36"/>
  <circle cx="26" cy="52" r="2.5" stroke-width="2"/>
  <circle cx="40" cy="52" r="2.5" stroke-width="2"/>
</svg>
